# xmcd CD database file
#
# Track frame offsets:
#	150
#	23270
#	55943
#	80411
#	105575
#	126482
#	160807
#	196775
#	224738
#
# Disc length: 3280 seconds
#
# Revision: 0
# Processed by: cddbd v1.5.1PL2 Copyright (c) Steve Scherf et al.
# Submitted via: CDex 1.51
#
DISCID=730cce09
DTITLE=Didier LABBE - Zadar
DYEAR=2001
DGENRE=Jazz
TTITLE0=Les monstres
TTITLE1=The flood
TTITLE2=La valse des crevettes
TTITLE3=Facing west
TTITLE4=Tout a l'est de l'hudson
TTITLE5=Youval
TTITLE6=My life is a nostalgia
TTITLE7=La petite Gitane
TTITLE8=Zadar
EXTD=YEAR: 2001
EXTT0=
EXTT1=
EXTT2=
EXTT3=
EXTT4=
EXTT5=
EXTT6=
EXTT7=
EXTT8=
PLAYORDER=
